<svg version="1.1" viewBox="0.0 0.0 960.0 480.0" fill="none" stroke="none" stroke-linecap="square" stroke-miterlimit="10" xmlns:xlink="http://www.w3.org/1999/xlink" xmlns="http://www.w3.org/2000/svg"><clipPath id="p.0"><path d="m0 0l960.0 0l0 480.0l-960.0 0l0 -480.0z" clip-rule="nonzero"/></clipPath><g clip-path="url(#p.0)"><path fill="#ffffff" d="m0 0l960.0 0l0 480.0l-960.0 0z" fill-rule="evenodd"/><path fill="#434343" d="m470.32156 220.80315l96.00003 0l0 19.2126l-96.00003 0z" fill-rule="evenodd"/><path fill="#434343" d="m107.42519 124.80315l19.2126 0l0 192.00002l-19.2126 0z" fill-rule="evenodd"/><path fill="#434343" d="m107.42519 124.80315l96.00001 0l0 19.2126l-96.00001 0z" fill-rule="evenodd"/><path fill="#434343" d="m107.42519 297.59055l96.00001 0l0 19.212616l-96.00001 0z" fill-rule="evenodd"/><path fill="#434343" d="m107.42519 211.19685l96.00001 0l0 19.2126l-96.00001 0z" fill-rule="evenodd"/><path fill="#434343" d="m324.54855 220.80315l0 19.2126l-96.0 0l0 -19.2126z" fill-rule="evenodd"/><path fill="#434343" d="m324.54855 220.80315l0 96.000015l-19.212585 0l0 -96.000015z" fill-rule="evenodd"/><path fill="#434343" d="m286.15485 220.80315l0 96.000015l-19.212585 0l0 -96.000015z" fill-rule="evenodd"/><path fill="#434343" d="m247.76115 220.80315l0 96.000015l-19.2126 0l0 -96.000015z" fill-rule="evenodd"/><path fill="#434343" d="m368.88452 220.80315l0 96.000015l-19.212616 0l0 -96.000015z" fill-rule="evenodd"/><path fill="#434343" d="m445.6719 316.80316l-96.0 0l0 -19.212616l96.0 0z" fill-rule="evenodd"/><path fill="#434343" d="m426.45932 316.80316l0 -96.000015l19.212585 0l0 96.000015z" fill-rule="evenodd"/><path fill="#434343" d="m349.6719 220.80315l96.0 0l0 19.2126l-96.0 0z" fill-rule="evenodd"/><path fill="#434343" d="m523.1216 355.19553l0 -134.39369l19.212585 0l0 134.39369z" fill-rule="evenodd"/><path fill="#434343" d="m465.54645 335.98425l76.787415 0l0 19.212585l-76.787415 0z" fill-rule="evenodd"/><path fill="#434343" d="m523.1216 220.80315l0 -96.0l19.212585 0l0 96.0z" fill-rule="evenodd"/><path fill="#434343" d="m591.28156 316.80316l0 -96.000015l19.212646 0l0 96.000015z" fill-rule="evenodd"/><path fill="#434343" d="m591.28156 211.19685l0 -19.2126l19.212646 0l0 19.2126z" fill-rule="evenodd"/><path fill="#ffd966" d="m654.66406 220.80315l0 96.000015l-19.212646 0l0 -96.000015z" fill-rule="evenodd"/><path fill="#ffd966" d="m731.4514 316.80316l-96.0 0l0 -19.212616l96.0 0z" fill-rule="evenodd"/><path fill="#ffd966" d="m712.23883 316.80316l0 -96.000015l19.212585 0l0 96.000015z" fill-rule="evenodd"/><path fill="#ffd966" d="m635.4514 220.80315l96.0 0l0 19.2126l-96.0 0z" fill-rule="evenodd"/><path fill="#ffd966" d="m852.5748 220.80315l0 19.2126l-96.0 0l0 -19.2126z" fill-rule="evenodd"/><path fill="#ffd966" d="m852.5748 220.80315l0 96.000015l-19.212646 0l0 -96.000015z" fill-rule="evenodd"/><path fill="#ffd966" d="m775.7874 220.80315l0 96.000015l-19.212585 0l0 -96.000015z" fill-rule="evenodd"/><path fill="#ffd966" d="m635.53467 220.89792l96.0 0l0 95.811035l-96.0 0z" fill-rule="evenodd"/><path fill="#ffd966" d="m654.78217 240.0689l58.11023 0l0 57.606308l-58.11023 0z" fill-rule="evenodd"/><path fill="#ffffff" d="m654.78217 240.0689l19.559021 0l0 19.401596l-19.559021 0z" fill-rule="evenodd"/><path fill="#ffffff" d="m693.2771 240.0689l19.559021 0l0 19.401596l-19.559021 0z" fill-rule="evenodd"/><path fill="#ffffff" d="m654.78217 278.41086l58.11023 0l0 19.40158l-58.11023 0z" fill-rule="evenodd"/></g></svg>